<svg id="visual" viewBox="0 0 900 600" width="900" height="600" xmlns="http://www.w3.org/2000/svg" xmlns:xlink="http://www.w3.org/1999/xlink" version="1.1"><rect x="0" y="0" width="900" height="600" fill="#001220"></rect><defs><linearGradient id="grad1_0" x1="33.3%" y1="0%" x2="100%" y2="100%"><stop offset="20%" stop-color="#001220" stop-opacity="1"></stop><stop offset="80%" stop-color="#001220" stop-opacity="1"></stop></linearGradient></defs><defs><linearGradient id="grad2_0" x1="0%" y1="0%" x2="66.7%" y2="100%"><stop offset="20%" stop-color="#001220" stop-opacity="1"></stop><stop offset="80%" stop-color="#001220" stop-opacity="1"></stop></linearGradient></defs><g transform="translate(900, 0)"><path d="M0 432.7C-43.2 394.1 -86.4 355.5 -140.8 340C-195.2 324.5 -260.8 332.2 -305.9 305.9C-351.1 279.7 -375.9 219.7 -393.6 163C-411.3 106.4 -422 53.2 -432.7 0L0 0Z" fill="#FBAE3C"></path></g><g transform="translate(0, 600)"><path d="M0 -432.7C58.3 -428.9 116.5 -425.2 165.6 -399.7C214.6 -374.3 254.5 -327.1 280.7 -280.7C307 -234.3 319.7 -188.6 342.8 -142C365.8 -95.3 399.2 -47.7 432.7 0L0 0Z" fill="#FBAE3C"></path></g></svg>