<svg id="visual" viewBox="0 0 900 600" width="900" height="600" xmlns="http://www.w3.org/2000/svg" xmlns:xlink="http://www.w3.org/1999/xlink" version="1.1"><rect x="0" y="0" width="900" height="600" fill="#001220"></rect><path d="M0 361L10 351.8C20 342.7 40 324.3 60 319.2C80 314 100 322 120 319.2C140 316.3 160 302.7 180 305.3C200 308 220 327 240 340.3C260 353.7 280 361.3 300 356.8C320 352.3 340 335.7 360 330.7C380 325.7 400 332.3 420 336.5C440 340.7 460 342.3 480 346.7C500 351 520 358 540 355.2C560 352.3 580 339.7 600 328.3C620 317 640 307 660 304.2C680 301.3 700 305.7 720 312.8C740 320 760 330 780 328.7C800 327.3 820 314.7 840 309.8C860 305 880 308 890 309.5L900 311L900 0L890 0C880 0 860 0 840 0C820 0 800 0 780 0C760 0 740 0 720 0C700 0 680 0 660 0C640 0 620 0 600 0C580 0 560 0 540 0C520 0 500 0 480 0C460 0 440 0 420 0C400 0 380 0 360 0C340 0 320 0 300 0C280 0 260 0 240 0C220 0 200 0 180 0C160 0 140 0 120 0C100 0 80 0 60 0C40 0 20 0 10 0L0 0Z" fill="#c62368"></path><path d="M0 288L10 282C20 276 40 264 60 261.5C80 259 100 266 120 271.3C140 276.7 160 280.3 180 280.3C200 280.3 220 276.7 240 283.7C260 290.7 280 308.3 300 310.3C320 312.3 340 298.7 360 295.8C380 293 400 301 420 294C440 287 460 265 480 255.2C500 245.3 520 247.7 540 248.3C560 249 580 248 600 257C620 266 640 285 660 293.8C680 302.7 700 301.3 720 298.5C740 295.7 760 291.3 780 283C800 274.7 820 262.3 840 265.2C860 268 880 286 890 295L900 304L900 0L890 0C880 0 860 0 840 0C820 0 800 0 780 0C760 0 740 0 720 0C700 0 680 0 660 0C640 0 620 0 600 0C580 0 560 0 540 0C520 0 500 0 480 0C460 0 440 0 420 0C400 0 380 0 360 0C340 0 320 0 300 0C280 0 260 0 240 0C220 0 200 0 180 0C160 0 140 0 120 0C100 0 80 0 60 0C40 0 20 0 10 0L0 0Z" fill="#cf3068"></path><path d="M0 276L10 265.2C20 254.3 40 232.7 60 233C80 233.3 100 255.7 120 264.3C140 273 160 268 180 256.8C200 245.7 220 228.3 240 221.5C260 214.7 280 218.3 300 224.3C320 230.3 340 238.7 360 245C380 251.3 400 255.7 420 251C440 246.3 460 232.7 480 231C500 229.3 520 239.7 540 242C560 244.3 580 238.7 600 241.5C620 244.3 640 255.7 660 261.5C680 267.3 700 267.7 720 268.7C740 269.7 760 271.3 780 264.5C800 257.7 820 242.3 840 238.7C860 235 880 243 890 247L900 251L900 0L890 0C880 0 860 0 840 0C820 0 800 0 780 0C760 0 740 0 720 0C700 0 680 0 660 0C640 0 620 0 600 0C580 0 560 0 540 0C520 0 500 0 480 0C460 0 440 0 420 0C400 0 380 0 360 0C340 0 320 0 300 0C280 0 260 0 240 0C220 0 200 0 180 0C160 0 140 0 120 0C100 0 80 0 60 0C40 0 20 0 10 0L0 0Z" fill="#d73b67"></path><path d="M0 226L10 216.7C20 207.3 40 188.7 60 186.8C80 185 100 200 120 201C140 202 160 189 180 190.3C200 191.7 220 207.3 240 211.2C260 215 280 207 300 201.5C320 196 340 193 360 198.7C380 204.3 400 218.7 420 216.3C440 214 460 195 480 191.2C500 187.3 520 198.7 540 207.3C560 216 580 222 600 217.5C620 213 640 198 660 190.2C680 182.3 700 181.7 720 179.8C740 178 760 175 780 177.2C800 179.3 820 186.7 840 191.8C860 197 880 200 890 201.5L900 203L900 0L890 0C880 0 860 0 840 0C820 0 800 0 780 0C760 0 740 0 720 0C700 0 680 0 660 0C640 0 620 0 600 0C580 0 560 0 540 0C520 0 500 0 480 0C460 0 440 0 420 0C400 0 380 0 360 0C340 0 320 0 300 0C280 0 260 0 240 0C220 0 200 0 180 0C160 0 140 0 120 0C100 0 80 0 60 0C40 0 20 0 10 0L0 0Z" fill="#df4667"></path><path d="M0 139L10 144.2C20 149.3 40 159.7 60 166.3C80 173 100 176 120 176.3C140 176.7 160 174.3 180 169.7C200 165 220 158 240 158.7C260 159.3 280 167.7 300 170.2C320 172.7 340 169.3 360 171C380 172.7 400 179.3 420 175.8C440 172.3 460 158.7 480 154.5C500 150.3 520 155.7 540 157.5C560 159.3 580 157.7 600 159.2C620 160.7 640 165.3 660 171.8C680 178.3 700 186.7 720 186.5C740 186.3 760 177.7 780 175.7C800 173.7 820 178.3 840 183C860 187.7 880 192.3 890 194.7L900 197L900 0L890 0C880 0 860 0 840 0C820 0 800 0 780 0C760 0 740 0 720 0C700 0 680 0 660 0C640 0 620 0 600 0C580 0 560 0 540 0C520 0 500 0 480 0C460 0 440 0 420 0C400 0 380 0 360 0C340 0 320 0 300 0C280 0 260 0 240 0C220 0 200 0 180 0C160 0 140 0 120 0C100 0 80 0 60 0C40 0 20 0 10 0L0 0Z" fill="#e75167"></path><path d="M0 123L10 123.3C20 123.7 40 124.3 60 127.3C80 130.3 100 135.7 120 137.3C140 139 160 137 180 138.5C200 140 220 145 240 142C260 139 280 128 300 119.2C320 110.3 340 103.7 360 102.3C380 101 400 105 420 107.7C440 110.3 460 111.7 480 118.7C500 125.7 520 138.3 540 143.7C560 149 580 147 600 146.2C620 145.3 640 145.7 660 142C680 138.3 700 130.7 720 130.5C740 130.3 760 137.7 780 138C800 138.3 820 131.7 840 129C860 126.3 880 127.7 890 128.3L900 129L900 0L890 0C880 0 860 0 840 0C820 0 800 0 780 0C760 0 740 0 720 0C700 0 680 0 660 0C640 0 620 0 600 0C580 0 560 0 540 0C520 0 500 0 480 0C460 0 440 0 420 0C400 0 380 0 360 0C340 0 320 0 300 0C280 0 260 0 240 0C220 0 200 0 180 0C160 0 140 0 120 0C100 0 80 0 60 0C40 0 20 0 10 0L0 0Z" fill="#ee5c67"></path><path d="M0 102L10 96C20 90 40 78 60 71.5C80 65 100 64 120 65.7C140 67.3 160 71.7 180 72.2C200 72.7 220 69.3 240 73.5C260 77.7 280 89.3 300 89.5C320 89.7 340 78.3 360 75.8C380 73.3 400 79.7 420 86.2C440 92.7 460 99.3 480 103.2C500 107 520 108 540 107.2C560 106.3 580 103.7 600 103.7C620 103.7 640 106.3 660 107.3C680 108.3 700 107.7 720 99.8C740 92 760 77 780 72.5C800 68 820 74 840 81.5C860 89 880 98 890 102.5L900 107L900 0L890 0C880 0 860 0 840 0C820 0 800 0 780 0C760 0 740 0 720 0C700 0 680 0 660 0C640 0 620 0 600 0C580 0 560 0 540 0C520 0 500 0 480 0C460 0 440 0 420 0C400 0 380 0 360 0C340 0 320 0 300 0C280 0 260 0 240 0C220 0 200 0 180 0C160 0 140 0 120 0C100 0 80 0 60 0C40 0 20 0 10 0L0 0Z" fill="#f46767"></path><path d="M0 26L10 32.5C20 39 40 52 60 52.7C80 53.3 100 41.7 120 37.5C140 33.3 160 36.7 180 42.7C200 48.7 220 57.3 240 56.3C260 55.3 280 44.7 300 38.2C320 31.7 340 29.3 360 29.8C380 30.3 400 33.7 420 38.3C440 43 460 49 480 49.7C500 50.3 520 45.7 540 44C560 42.3 580 43.7 600 47.2C620 50.7 640 56.3 660 56.2C680 56 700 50 720 50C740 50 760 56 780 57.7C800 59.3 820 56.7 840 55.2C860 53.7 880 53.3 890 53.2L900 53L900 0L890 0C880 0 860 0 840 0C820 0 800 0 780 0C760 0 740 0 720 0C700 0 680 0 660 0C640 0 620 0 600 0C580 0 560 0 540 0C520 0 500 0 480 0C460 0 440 0 420 0C400 0 380 0 360 0C340 0 320 0 300 0C280 0 260 0 240 0C220 0 200 0 180 0C160 0 140 0 120 0C100 0 80 0 60 0C40 0 20 0 10 0L0 0Z" fill="#fa7268"></path></svg>